<svg width="241" height="94" viewBox="0 0 241 94" fill="none" xmlns="http://www.w3.org/2000/svg">
<path d="M0.0454559 94V0.909088H22.5455V38.2727H59.2273V0.909088H81.6818V94H59.2273V56.5909H22.5455V94H0.0454559Z" fill="black"/>
<path d="M168.045 94V0.909088H206.5C213.47 0.909088 219.485 2.27273 224.545 5C229.636 7.69697 233.561 11.4697 236.318 16.3182C239.076 21.1364 240.455 26.7424 240.455 33.1364C240.455 39.5606 239.045 45.1818 236.227 50C233.439 54.7879 229.455 58.5 224.273 61.1364C219.091 63.7727 212.939 65.0909 205.818 65.0909H182.091V47.3636H201.636C205.03 47.3636 207.864 46.7727 210.136 45.5909C212.439 44.4091 214.182 42.7576 215.364 40.6364C216.545 38.4848 217.136 35.9848 217.136 33.1364C217.136 30.2576 216.545 27.7727 215.364 25.6818C214.182 23.5606 212.439 21.9242 210.136 20.7727C207.833 19.6212 205 19.0455 201.636 19.0455H190.545V94H168.045Z" fill="black"/>
<path d="M86.3636 94L59.2727 0.909088H84.1364L98.1818 61.9091H98.9546L115 0.909088H135.273L151.318 62.0455H152.091L166.182 0.909088H191L163.955 94H142.273L125.5 37.5455H124.773L108 94H86.3636Z" fill="black"/>
</svg>
